<svg t="1761924893181" class="icon" viewBox="0 0 1024 1024" version="1.1" xmlns="http://www.w3.org/2000/svg" p-id="5999" width="256" height="256"><path d="M940.586667 508.245333h-190.976c-25.728 0-56.106667 20.992-56.106667 46.592 0 25.728 30.378667 46.634667 56.106667 46.634667h124.330666l-34.133333 64.128h-146.218667l-77.141333-137.728 74.069333-137.685333h153.6l46.08 80.085333h107.178667L909.653333 296.96h-277.717333l-120.661333 224.341333 122.496 228.352 271.573333-0.682666 118.485333-240.682667h-83.285333zM421.034667 289.024c-28.672 0-52.224 23.466667-52.224 52.224v242.773333L89.130667 304.213333a51.328 51.328 0 0 0-20.693334-12.544l-0.896-0.341333-3.328-0.938667c-0.554667-0.085333-1.109333-0.341333-1.706666-0.426666a23.125333 23.125333 0 0 0-2.986667-0.469334l-2.133333-0.341333a49.621333 49.621333 0 0 0-4.138667-0.256h-0.896c-1.706667 0-3.541333 0.128-5.248 0.256h-0.256A52.053333 52.053333 0 0 0 0.426667 335.530667v0.256c-0.213333 1.706667-0.213333 3.541333-0.213334 5.248v360.661333c0 28.714667 23.466667 52.266667 52.224 52.266667 28.714667 0 52.266667-23.466667 52.266667-52.266667V467.2L379.733333 742.272a52.266667 52.266667 0 0 0 72.533334 1.024 52.053333 52.053333 0 0 0 20.949333-41.685333V341.162667c0-28.714667-23.552-52.138667-52.224-52.138667z" fill="#369750" p-id="6000"></path><path d="M0 0h1024v1024H0z" fill="#D8D8D8" fill-opacity="0" p-id="6001"></path></svg>